<svg width="171" height="44" viewBox="0 0 171 44" fill="none" xmlns="http://www.w3.org/2000/svg">
<path d="M151.013 4.51752C149.025 4.0552 130.625 0.095766 85.4756 0C40.3015 0.095766 21.9197 4.0684 19.9874 4.51421C-6.27856 10.2536 0.788046 29.4464 1.07294 30.2522C3.18487 36.292 16.2714 40.268 41.088 42.3979C60.8386 44.0953 81.5553 44.0193 85.4818 43.9896C85.9587 43.9896 87.0054 43.9896 88.5104 43.9896C95.3231 43.9896 113.067 43.8311 129.9 42.3847C154.717 40.2547 167.804 36.2788 169.916 30.2456C170.225 29.4464 177.267 10.2602 151.013 4.51752Z" fill="#8F3333"/>
<path d="M150.542 4.47191C148.991 4.1127 130.673 0.0955677 85.4793 0C40.3284 0.0955677 22.011 4.1127 20.4537 4.47191C-4.98929 10.0313 1.66653 28.5286 2.09913 29.6491C4.13234 35.4688 16.962 39.3146 41.3234 41.4072C61.464 43.1373 82.7663 43.0121 85.4979 42.989C85.9737 42.989 87.012 42.989 88.5075 42.989C95.6083 42.989 113.042 42.8275 129.672 41.3973C154.034 39.3047 166.87 35.4655 168.897 29.6392C169.335 28.5121 175.991 10.0313 150.542 4.47191Z" fill="#FFFDF9"/>
<path d="M149.112 6.24347C149.112 6.24347 131.57 2.0977 85.4969 2C39.4297 2.0977 21.8885 6.2337 21.8885 6.2337C-0.962145 11.1187 5.99724 28.6137 5.99724 28.6137C9.82429 39.5529 71.2742 40.1163 85.4969 39.986C99.7196 40.1163 161.17 39.5529 165.003 28.6235C165.003 28.6235 171.962 11.1318 149.112 6.24347Z" fill="#EA5A40"/>
<path d="M144.207 7.01649C144.207 7.01649 126.763 3.09218 82.4982 3C38.2643 3.09218 22.0168 7.01649 22.0168 7.01649C0.777353 11.6519 9.98628 28.2216 9.98628 28.2216C15.2202 38.5755 74.3435 39.1089 87.9863 38.9871C101.629 39.1089 160.616 38.5755 162.7 28.2216C162.7 28.2216 166.861 11.6618 144.207 7.01649Z" fill="#FF6347"/>
<path d="M44.0269 24.12H46.0869C46.5936 24.12 46.9669 24.0067 47.2069 23.78C47.4469 23.5533 47.5669 23.2867 47.5669 22.98C47.5669 22.46 47.4002 22.1133 47.0669 21.94C46.7336 21.7533 46.2869 21.66 45.7269 21.66H44.0269V24.12ZM44.0269 19.1H45.6069C45.8602 19.1 46.0802 19.1 46.2669 19.1C46.4536 19.0867 46.6469 19.0067 46.8469 18.86C47.1936 18.62 47.3669 18.2933 47.3669 17.88C47.3669 17.4533 47.2402 17.16 46.9869 17C46.7336 16.84 46.3269 16.76 45.7669 16.76H44.0269V19.1ZM40.6669 27V13.68H46.5469C48.0002 13.68 49.0869 13.9267 49.8069 14.42C50.5402 14.9 50.9069 15.7467 50.9069 16.96C50.9069 17.8533 50.6402 18.5933 50.1069 19.18C49.5869 19.7667 48.7936 20.1333 47.7269 20.28C48.2869 20.3067 48.7736 20.38 49.1869 20.5C49.6002 20.62 49.9402 20.8067 50.2069 21.06C50.4869 21.3 50.6936 21.6133 50.8269 22C50.9602 22.3733 51.0269 22.84 51.0269 23.4C51.0269 23.7067 51.0002 23.9667 50.9469 24.18C50.9069 24.3933 50.8336 24.6333 50.7269 24.9C50.4202 25.6333 49.9402 26.1667 49.2869 26.5C48.6469 26.8333 47.8002 27 46.7469 27H40.6669ZM59.813 24.62C59.5997 25.1667 59.3663 25.6133 59.113 25.96C58.8597 26.3067 58.5797 26.58 58.273 26.78C57.9663 26.98 57.6397 27.1133 57.293 27.18C56.9463 27.26 56.573 27.3 56.173 27.3C55.5863 27.3 55.0397 27.16 54.533 26.88C54.0263 26.6 53.6397 26.2267 53.373 25.76C53.173 25.4133 53.0397 25.04 52.973 24.64C52.9197 24.24 52.893 23.8133 52.893 23.36V15.84H56.633V22.4C56.633 22.92 56.753 23.3267 56.993 23.62C57.2463 23.9133 57.6263 24.06 58.133 24.06C59.093 24.06 59.573 23.32 59.573 21.84V15.84H63.313V27H59.713L59.813 24.62ZM68.7521 15.86L69.8321 18.92C70.2321 20.04 70.4921 21 70.6121 21.8C70.7454 22.5867 70.8454 23.2533 70.9121 23.8C70.9254 23.6 70.9454 23.3533 70.9721 23.06C70.9987 22.7533 71.0387 22.4 71.0921 22C71.1587 21.5867 71.2454 21.12 71.3521 20.6C71.4721 20.08 71.6254 19.4867 71.8121 18.82L72.6721 15.86H76.2721L71.5321 29.64H67.9721L69.1721 26.22L65.0321 15.86H68.7521ZM88.931 13.66H93.831L95.491 17.78C95.9976 19.0333 96.3776 20.1467 96.631 21.12C96.8976 22.0933 97.1243 22.9333 97.311 23.64C97.2043 22.4933 97.1176 21.4467 97.051 20.5C96.9843 19.54 96.951 18.68 96.951 17.92V13.66H100.251V27H96.091L94.051 22.6C94.011 22.5067 93.9843 22.4133 93.971 22.32C93.9576 22.24 93.8776 22.0533 93.731 21.76C93.5976 21.4667 93.431 21.0933 93.231 20.64C93.0443 20.1733 92.8376 19.6333 92.611 19.02C92.3976 18.4067 92.2043 17.7333 92.031 17C92.1243 18.3333 92.191 19.4733 92.231 20.42C92.271 21.3533 92.291 22.0333 92.291 22.46V27H88.931V13.66ZM107.502 18.64C107.196 18.64 106.916 18.7 106.662 18.82C106.422 18.94 106.209 19.1067 106.022 19.32C105.849 19.52 105.709 19.76 105.602 20.04C105.509 20.3067 105.462 20.6 105.462 20.92C105.462 21.9867 105.622 22.8 105.942 23.36C106.262 23.9067 106.816 24.18 107.602 24.18C108.242 24.18 108.742 23.9133 109.102 23.38C109.462 22.8333 109.642 22.0267 109.642 20.96C109.642 20.28 109.462 19.7267 109.102 19.3C108.756 18.86 108.222 18.64 107.502 18.64ZM107.442 15.18C107.789 15.18 108.089 15.1867 108.342 15.2C108.596 15.2133 108.896 15.2533 109.242 15.32C111.749 15.8667 113.002 17.7467 113.002 20.96C113.002 22.96 112.536 24.5 111.602 25.58C110.682 26.66 109.349 27.2 107.602 27.2C106.496 27.2 105.582 27.0467 104.862 26.74C104.142 26.4333 103.542 25.8867 103.062 25.1C102.769 24.62 102.536 24.0267 102.362 23.32C102.189 22.6 102.102 21.8 102.102 20.92C102.102 19.0133 102.556 17.58 103.462 16.62C104.382 15.66 105.709 15.18 107.442 15.18ZM117.132 15.86L117.912 18.72C118.126 19.48 118.279 20.2933 118.372 21.16C118.479 22.0267 118.579 22.94 118.672 23.9C118.699 23.7 118.719 23.4533 118.732 23.16C118.746 22.8667 118.766 22.5133 118.792 22.1C118.832 21.6733 118.886 21.1933 118.952 20.66C119.019 20.1267 119.126 19.52 119.272 18.84L119.872 15.86H124.172L124.752 18.72C124.872 19.28 124.959 19.8133 125.012 20.32C125.079 20.8133 125.126 21.28 125.152 21.72C125.179 22.16 125.199 22.5667 125.212 22.94C125.239 23.3 125.266 23.62 125.292 23.9C125.346 23.5267 125.406 22.8933 125.472 22C125.552 21.1067 125.766 20.0133 126.112 18.72L126.872 15.86H130.532L127.152 27H123.132L122.592 24.24C122.339 23.0267 122.179 22.0067 122.112 21.18C122.059 20.3533 122.019 19.6867 121.992 19.18C121.926 19.6733 121.852 20.3467 121.772 21.2C121.706 22.0533 121.546 23.1 121.292 24.34L120.732 27H116.792L113.352 15.86H117.132Z" fill="white"/>
</svg>
