<svg width="139" height="44" viewBox="0 0 139 44" fill="none" xmlns="http://www.w3.org/2000/svg">
<path d="M122.421 4.92226C120.81 4.46468 105.893 0.545834 69.2921 0.45105C32.671 0.545834 17.7695 4.47775 16.2031 4.91898C-5.08981 10.5995 0.638841 29.5956 0.869794 30.3931C2.58186 36.371 13.1906 40.3062 33.3086 42.4143C49.3197 44.0943 66.114 44.0191 69.2971 43.9897C69.6837 43.9897 70.5322 43.9897 71.7523 43.9897C77.2751 43.9897 91.6594 43.8328 105.306 42.4013C125.424 40.2931 136.033 36.358 137.745 30.3865C137.996 29.5956 143.704 10.606 122.421 4.92226Z" fill="#AF8506"/>
<path d="M122.15 4.43525C120.89 4.07899 106.009 0.0947843 69.2921 0C32.6108 0.0947843 17.7294 4.07899 16.4642 4.43525C-4.20614 9.94908 1.20117 28.2948 1.55262 29.406C3.20443 35.1781 13.6275 38.9923 33.4191 41.0677C49.7816 42.7837 67.0881 42.6595 69.3072 42.6366C69.6938 42.6366 70.5373 42.6366 71.7523 42.6366C77.5211 42.6366 91.6845 42.4764 105.195 41.0579C124.987 38.9825 135.415 35.1748 137.062 29.3962C137.418 28.2784 142.826 9.94908 122.15 4.43525Z" fill="#FFFDF9"/>
<path d="M120.8 6.51388C120.8 6.51388 106.601 2.35318 69.3073 2.25513C32.0184 2.35318 17.8198 6.50408 17.8198 6.50408C-0.676487 11.4067 4.95674 28.9647 4.95674 28.9647C8.05453 39.9433 57.7948 40.5088 69.3073 40.378C80.8198 40.5088 130.56 39.9433 133.663 28.9745C133.663 28.9745 139.296 11.4198 120.8 6.51388Z" fill="#D19F09"/>
<path d="M117.305 7.41607C117.305 7.41607 103.182 3.5201 67.3441 3.42859C31.5313 3.5201 18.377 7.41607 18.377 7.41607C1.18107 12.018 8.63682 28.468 8.63682 28.468C12.8743 38.7472 60.7418 39.2767 71.7874 39.1557C82.833 39.2767 130.59 38.7472 132.277 28.468C132.277 28.468 135.646 12.0278 117.305 7.41607Z" fill="#FFF2CB"/>
<path d="M44.9986 23.4032C44.8762 23.7421 44.6976 24.0455 44.3151 24.1721C44.1387 24.232 43.9529 24.2636 43.7653 24.2657C41.609 24.2718 39.4527 24.2718 37.2964 24.2657C36.5103 24.2657 36.0533 23.8279 36.0519 23.088C36.0519 22.3847 36.0519 21.6813 36.0519 20.978C36.0519 20.2421 36.516 19.8082 37.3063 19.8082H43.5937C44.422 19.8082 44.685 19.9731 45 20.6852L44.9986 23.4032ZM38.0333 22.0396C38.0333 22.4471 38.0994 22.6185 38.3343 22.7122C38.4739 22.7705 38.6251 22.8007 38.7779 22.8007C38.9308 22.8007 39.082 22.7705 39.2216 22.7122C39.538 22.5803 39.5296 22.2968 39.531 22.0211C39.531 21.7719 39.4747 21.5424 39.216 21.4435C39.0751 21.3875 38.9234 21.3595 38.7704 21.3613C38.6174 21.3631 38.4665 21.3947 38.3272 21.4541C38.0446 21.5728 38.0193 21.8194 38.0333 22.0396Z" fill="#FFC107"/>
<path d="M43.8258 19.0843H43.5811C41.4717 19.0843 39.3623 19.0843 37.2528 19.0843C36.44 19.0843 35.8156 19.4166 35.4697 20.1156C35.3484 20.3771 35.2834 20.6586 35.2784 20.9438C35.2531 21.6823 35.2672 22.4208 35.27 23.1593C35.2636 23.4041 35.3104 23.6475 35.4076 23.8747C35.5048 24.102 35.6504 24.3083 35.8354 24.481C36.0204 24.6538 36.241 24.7894 36.4837 24.8796C36.7265 24.9698 36.9862 25.0127 37.2472 25.0056C38.6141 25.0056 39.981 25.0056 41.3479 25.0056H43.8286C43.8286 25.0794 43.8398 25.1441 43.8398 25.2074C43.8398 26.0804 43.8398 26.9534 43.8398 27.8265C43.8398 28.5676 43.38 28.9962 42.5897 28.9962H26.2474C25.4599 28.9962 25 28.5623 25 27.8225C25 23.9822 25 20.1424 25 16.303C25 15.6001 25.4669 15.1556 26.2136 15.1556H42.6375C43.3504 15.1556 43.8244 15.5605 43.837 16.2107C43.8539 17.1338 43.837 18.0662 43.837 18.9946C43.8358 19.0247 43.832 19.0547 43.8258 19.0843Z" fill="#FFC107"/>
<path d="M41.5517 14.4171H32.3308C32.3829 14.3939 32.4365 14.3737 32.4911 14.3565C34.9099 13.7358 37.3292 13.1159 39.7489 12.497C40.452 12.3163 41.0145 12.6196 41.2199 13.2817C41.3309 13.6549 41.4392 14.0307 41.5517 14.4171Z" fill="#FFC107"/>
<path d="M28.6746 14.38L29.1597 14.1532L35.6286 11.149C36.2741 10.8497 36.8942 11.0079 37.2233 11.5644C37.3738 11.819 37.5045 12.0919 37.6522 12.3702C37.5622 12.3966 37.4863 12.423 37.4075 12.4427C34.8889 13.0889 32.3716 13.7417 29.846 14.3682C29.4804 14.4592 29.0782 14.4209 28.6914 14.4407L28.6746 14.38Z" fill="#FFC107"/>
<path d="M64.8166 13.72L62.6966 22.94L60.8966 20.06H57.9166L57.0366 21.46L55.6766 13.96L52.2366 14.56L54.3966 26.58L57.5966 27.18L59.4166 24.28L61.9566 28.36L65.1766 27.84L68.2366 14.52L64.8166 13.72ZM77.7977 15.72C77.0377 14.98 75.9777 14.6 74.6577 14.6C74.0577 14.6 73.3977 14.68 72.6777 14.84L71.2177 15.16L71.8577 18.08L73.3177 17.76C73.8177 17.66 74.2577 17.6 74.6377 17.6C75.1377 17.6 75.5177 17.7 75.7177 17.88C76.0777 18.22 76.1577 19 76.1177 19.92C75.3377 19.46 74.3377 19.08 73.2577 19.08C72.3577 19.08 71.3977 19.34 70.4377 20C68.6777 21.22 68.1577 23.52 69.2377 25.36C69.9377 26.56 71.2977 27.44 73.1177 27.44C73.7377 27.44 74.4177 27.34 75.1377 27.1L75.0777 27.62L78.0577 27.9L78.1977 26.42C78.2777 25.74 78.4177 24.9 78.5777 24.04C79.1177 21.02 79.7377 17.62 77.7977 15.72ZM75.6377 23.5C75.6177 23.54 75.6177 23.58 75.6177 23.62L74.9177 23.96C74.2377 24.28 73.5977 24.44 73.0777 24.44C72.4977 24.44 72.0577 24.24 71.8177 23.84C71.5777 23.44 71.5977 22.84 72.1577 22.46C72.5377 22.18 72.9177 22.08 73.2777 22.08C74.2977 22.08 75.1177 22.88 75.2577 23L75.6577 23.42C75.6377 23.44 75.6377 23.48 75.6377 23.5ZM86.509 25.06L84.049 25.22L83.709 14.2L80.709 14.28L81.089 26.86L82.689 28.32L86.709 28.04L86.509 25.06ZM94.1066 25.06L91.6466 25.22L91.3066 14.2L88.3066 14.28L88.6866 26.86L90.2866 28.32L94.3066 28.04L94.1066 25.06ZM101.204 23.9L100.504 25.22C100.244 25.68 99.9235 26.12 99.3435 26.12C98.4435 26.02 98.2235 24.84 98.1435 24.12C98.2835 24.14 98.4235 24.14 98.5635 24.14C101.024 24.14 102.804 22.1 103.284 19.82C103.744 17.68 102.864 15.78 101.144 15.2C100.844 15.1 100.504 15.04 100.164 15.04C98.8635 15.04 97.2835 15.84 96.1435 18.18C95.0835 20.34 94.7835 23.68 95.4635 25.92C95.9835 27.68 97.3835 28.92 99.0435 29.1C99.1635 29.1 99.3035 29.12 99.4235 29.12C100.944 29.12 102.304 28.2 103.144 26.62L103.844 25.3L101.204 23.9ZM98.8435 19.48C99.4435 18.24 100.064 18 100.184 18.04C100.264 18.06 100.524 18.42 100.364 19.2C100.144 20.22 99.6435 20.7 99.2635 20.94C98.9835 21.1 98.7435 21.14 98.4235 21.14L98.3235 21.1C98.4435 20.5 98.6235 19.94 98.8435 19.48ZM111.795 24.26C111.555 24.32 111.315 24.36 111.075 24.38C111.035 24.38 111.015 24.4 110.975 24.4C110.855 24.4 110.755 24.26 110.735 24.16C110.575 23.66 110.535 23.16 110.515 22.64C110.475 21.36 110.555 20.06 110.635 18.78C110.635 18.74 110.635 18.7 110.655 18.66C110.695 18.62 110.755 18.62 110.795 18.62C111.975 18.6 113.155 18.56 114.335 18.54L114.235 15.54C113.115 15.58 111.995 15.6 110.855 15.62C110.955 14.16 111.155 12.66 111.155 11.18L108.155 11C108.075 12.54 107.955 14.1 107.855 15.66C106.775 15.66 105.715 15.66 104.655 15.64C104.655 15.64 104.635 18.44 104.635 18.64C104.635 18.64 104.695 18.64 104.795 18.64C105.395 18.64 107.495 18.68 107.635 18.68C107.735 20.22 107.415 21.78 107.515 23.32C107.635 25.34 108.755 27.4 110.975 27.4C111.495 27.4 112.015 27.28 112.515 27.14C112.675 27.1 114.155 26.62 114.155 26.62L113.255 23.78C112.795 23.92 112.295 24.12 111.795 24.26Z" fill="#FFC107"/>
</svg>
